<svg width="119" height="19" viewBox="0 0 119 19" fill="none" xmlns="http://www.w3.org/2000/svg">
<path d="M17.712 18H14.568C14.216 18 13.924 17.92 13.692 17.76C13.468 17.592 13.312 17.38 13.224 17.124L12.192 14.076H5.54399L4.51199 17.124C4.43199 17.348 4.27599 17.552 4.04399 17.736C3.81199 17.912 3.52799 18 3.19199 18H0.0239868L6.79199 0.516006H10.944L17.712 18ZM6.47999 11.316H11.256L9.64799 6.52801C9.54399 6.22401 9.41999 5.86801 9.27599 5.46C9.13999 5.04401 9.00399 4.59601 8.86799 4.116C8.73999 4.604 8.60799 5.05601 8.47199 5.47201C8.33599 5.88801 8.20799 6.248 8.08799 6.552L6.47999 11.316Z" fill="black"/>
<path d="M23.1913 14.76H29.6713V18H19.1353V0.516006H23.1913V14.76Z" fill="black"/>
<path d="M35.6366 14.76H42.1166V18H31.5806V0.516006H35.6366V14.76Z" fill="black"/>
<path d="M48.4659 18H44.3859V0.516006H48.4659V18Z" fill="black"/>
<path d="M53.8494 0.516006C54.0254 0.516006 54.1734 0.524005 54.2934 0.540005C54.4134 0.556005 54.5214 0.588005 54.6174 0.636005C54.7134 0.676005 54.8054 0.736005 54.8934 0.816005C54.9814 0.896005 55.0814 1.004 55.1934 1.14L63.4974 11.64C63.4654 11.304 63.4414 10.98 63.4254 10.668C63.4094 10.348 63.4014 10.048 63.4014 9.76801V0.516006H66.9774V18H64.8654C64.5534 18 64.2894 17.952 64.0734 17.856C63.8574 17.76 63.6494 17.584 63.4494 17.328L55.2054 6.91201C55.2294 7.21601 55.2494 7.51601 55.2654 7.81201C55.2814 8.10001 55.2894 8.37201 55.2894 8.62801V18H51.7134V0.516006H53.8494Z" fill="black"/>
<path d="M87.11 9.25201C87.11 10.516 86.8901 11.692 86.4501 12.78C86.0181 13.868 85.406 14.816 84.614 15.624C83.822 16.424 82.8661 17.052 81.746 17.508C80.634 17.964 79.398 18.192 78.038 18.192C76.678 18.192 75.438 17.964 74.318 17.508C73.198 17.052 72.2381 16.424 71.438 15.624C70.646 14.816 70.0301 13.868 69.59 12.78C69.1581 11.692 68.942 10.516 68.942 9.25201C68.942 7.98801 69.1581 6.81201 69.59 5.72401C70.0301 4.63601 70.646 3.69201 71.438 2.892C72.2381 2.092 73.198 1.464 74.318 1.00801C75.438 0.552005 76.678 0.324005 78.038 0.324005C79.398 0.324005 80.634 0.556005 81.746 1.02C82.8661 1.47601 83.822 2.104 84.614 2.90401C85.406 3.704 86.0181 4.648 86.4501 5.736C86.8901 6.82401 87.11 7.99601 87.11 9.25201ZM82.958 9.25201C82.958 8.38801 82.846 7.61201 82.622 6.92401C82.398 6.22801 82.0741 5.64001 81.65 5.16001C81.234 4.68001 80.722 4.31201 80.114 4.05601C79.506 3.80001 78.814 3.67201 78.038 3.67201C77.2541 3.67201 76.554 3.80001 75.938 4.05601C75.33 4.31201 74.814 4.68001 74.39 5.16001C73.974 5.64001 73.654 6.22801 73.43 6.92401C73.206 7.61201 73.094 8.38801 73.094 9.25201C73.094 10.124 73.206 10.908 73.43 11.604C73.654 12.292 73.974 12.876 74.39 13.356C74.814 13.836 75.33 14.204 75.938 14.46C76.554 14.708 77.2541 14.832 78.038 14.832C78.814 14.832 79.506 14.708 80.114 14.46C80.722 14.204 81.234 13.836 81.65 13.356C82.0741 12.876 82.398 12.292 82.622 11.604C82.846 10.908 82.958 10.124 82.958 9.25201Z" fill="black"/>
<path d="M91.1854 0.516006C91.3614 0.516006 91.5094 0.524005 91.6294 0.540005C91.7494 0.556005 91.8574 0.588005 91.9534 0.636005C92.0494 0.676005 92.1414 0.736005 92.2294 0.816005C92.3174 0.896005 92.4174 1.004 92.5294 1.14L100.833 11.64C100.801 11.304 100.777 10.98 100.761 10.668C100.745 10.348 100.737 10.048 100.737 9.76801V0.516006H104.313V18H102.201C101.889 18 101.625 17.952 101.409 17.856C101.193 17.76 100.985 17.584 100.785 17.328L92.5414 6.91201C92.5654 7.21601 92.5854 7.51601 92.6014 7.81201C92.6174 8.10001 92.6254 8.37201 92.6254 8.62801V18H89.0494V0.516006H91.1854Z" fill="black"/>
<path d="M118.446 0.516006V3.63601H111.27V7.71601H116.766V10.716H111.27V14.88H118.446V18H107.19V0.516006H118.446Z" fill="black"/>
</svg>
